<svg width="32" height="32" viewBox="0 0 32 32" fill="none" xmlns="http://www.w3.org/2000/svg">
<g id="vuesax/linear/briefcase">
<g id="briefcase">
<path id="Vector" d="M10.6666 29.3333H21.3333C26.6933 29.3333 27.6533 27.1867 27.9333 24.5733L28.9333 13.9067C29.2933 10.6533 28.36 8 22.6666 8H9.33331C3.63997 8 2.70664 10.6533 3.06664 13.9067L4.06664 24.5733C4.34664 27.1867 5.30664 29.3333 10.6666 29.3333Z" stroke="#41A05B" stroke-width="2" stroke-miterlimit="10" stroke-linecap="round" stroke-linejoin="round"/>
<path id="Vector_2" d="M10.6667 8.00002V6.93335C10.6667 4.57335 10.6667 2.66669 14.9334 2.66669H17.0667C21.3334 2.66669 21.3334 4.57335 21.3334 6.93335V8.00002" stroke="#41A05B" stroke-width="2" stroke-miterlimit="10" stroke-linecap="round" stroke-linejoin="round"/>
<path id="Vector_3" d="M18.6666 17.3333V18.6667C18.6666 18.68 18.6666 18.68 18.6666 18.6933C18.6666 20.1467 18.6533 21.3333 16 21.3333C13.36 21.3333 13.3333 20.16 13.3333 18.7067V17.3333C13.3333 16 13.3333 16 14.6666 16H17.3333C18.6666 16 18.6666 16 18.6666 17.3333Z" stroke="#41A05B" stroke-width="2" stroke-miterlimit="10" stroke-linecap="round" stroke-linejoin="round"/>
<path id="Vector_4" d="M28.8667 14.6667C25.7867 16.9067 22.2667 18.24 18.6667 18.6934" stroke="#41A05B" stroke-width="2" stroke-miterlimit="10" stroke-linecap="round" stroke-linejoin="round"/>
<path id="Vector_5" d="M3.49335 15.0267C6.49335 17.08 9.88001 18.32 13.3333 18.7067" stroke="#41A05B" stroke-width="1.5" stroke-miterlimit="10" stroke-linecap="round" stroke-linejoin="round"/>
</g>
</g>
</svg>
