<svg width="32" height="32" viewBox="0 0 32 32" fill="none" xmlns="http://www.w3.org/2000/svg">
<g id="vuesax/linear/chart-2">
<g id="chart-2">
<path id="Vector" d="M12 29.3334H20C26.6666 29.3334 29.3333 26.6667 29.3333 20V12C29.3333 5.33335 26.6666 2.66669 20 2.66669H12C5.33329 2.66669 2.66663 5.33335 2.66663 12V20C2.66663 26.6667 5.33329 29.3334 12 29.3334Z" stroke="#CD6900" stroke-width="2" stroke-linecap="round" stroke-linejoin="round"/>
<path id="Vector_2" d="M20.6667 24.6666C22.1333 24.6666 23.3333 23.4666 23.3333 22V9.99998C23.3333 8.53331 22.1333 7.33331 20.6667 7.33331C19.2 7.33331 18 8.53331 18 9.99998V22C18 23.4666 19.1867 24.6666 20.6667 24.6666Z" stroke="#CD6900" stroke-width="2" stroke-linecap="round" stroke-linejoin="round"/>
<path id="Vector_3" d="M11.3333 24.6667C12.8 24.6667 14 23.4667 14 22V17.3334C14 15.8667 12.8 14.6667 11.3333 14.6667C9.86663 14.6667 8.66663 15.8667 8.66663 17.3334V22C8.66663 23.4667 9.85329 24.6667 11.3333 24.6667Z" stroke="#CD6900" stroke-width="2" stroke-linecap="round" stroke-linejoin="round"/>
</g>
</g>
</svg>
