<svg width="36" height="36" viewBox="0 0 36 36" fill="none" xmlns="http://www.w3.org/2000/svg">
<g id="PDF / Outline">
<path id="Union" fill-rule="evenodd" clip-rule="evenodd" d="M6.75 4.5V31.5H29.25V13.5H31.5V31.5C31.5 32.0967 31.2629 32.669 30.841 33.091C30.419 33.5129 29.8467 33.75 29.25 33.75H6.75C6.15326 33.75 5.58097 33.5129 5.15901 33.091C4.73705 32.669 4.5 32.0967 4.5 31.5V4.5C4.5 3.90326 4.73705 3.33097 5.15901 2.90901C5.58097 2.48705 6.15326 2.25 6.75 2.25H20.25V4.5H6.75ZM24.75 11.25H31.5L22.5 2.25V9C22.5 9.59674 22.7371 10.169 23.159 10.591C23.581 11.0129 24.1533 11.25 24.75 11.25ZM9 15.75V23.625H10.575V20.925H12.0375C12.7237 20.925 13.3819 20.6524 13.8671 20.1671C14.3524 19.6819 14.625 19.0237 14.625 18.3375C14.625 17.6513 14.3524 16.9931 13.8671 16.5079C13.3819 16.0226 12.7237 15.75 12.0375 15.75H9ZM13.05 18.3375C13.05 18.606 12.9433 18.8636 12.7534 19.0534C12.5636 19.2433 12.306 19.35 12.0375 19.35H10.575V17.325H12.0375C12.306 17.325 12.5636 17.4317 12.7534 17.6216C12.9433 17.8114 13.05 18.069 13.05 18.3375ZM15.75 23.625V15.75H18C18.8951 15.75 19.7536 16.1056 20.3865 16.7385C21.0194 17.3714 21.375 18.2299 21.375 19.125V20.25C21.375 21.1451 21.0194 22.0036 20.3865 22.6365C19.7536 23.2694 18.8951 23.625 18 23.625H15.75ZM19.8 20.25V19.125C19.8 18.6476 19.6104 18.1898 19.2728 17.8522C18.9352 17.5146 18.4774 17.325 18 17.325H17.325V22.05H18C18.4774 22.05 18.9352 21.8604 19.2728 21.5228C19.6104 21.1852 19.8 20.7274 19.8 20.25ZM24.075 20.7H26.55V19.125H24.075V17.325H27V15.75H22.5V23.625H24.075V20.7Z" fill="#D60000"/>
</g>
</svg>
