<svg width="32" height="32" viewBox="0 0 32 32" fill="none" xmlns="http://www.w3.org/2000/svg">
<g id="vuesax/linear/pen-tool-2">
<g id="pen-tool-2">
<g id="Group">
<g id="Group_2">
<path id="Vector" d="M14.3334 30H17.6934C18.9734 30 19.8 29.0933 19.56 27.9866L19.0133 25.5734H13.0133L12.4667 27.9866C12.2267 29.0266 13.1334 30 14.3334 30Z" stroke="#FB5959" stroke-width="2" stroke-linecap="round" stroke-linejoin="round"/>
<path id="Vector_2" d="M19.0133 25.5601L21.32 23.5067C22.6133 22.36 22.6666 21.5599 21.6399 20.2666L17.5733 15.1067C16.7199 14.0267 15.32 14.0267 14.4666 15.1067L10.4 20.2666C9.37329 21.5599 9.37328 22.4 10.7199 23.5067L13.0266 25.5601" stroke="#FB5959" stroke-width="2" stroke-linecap="round" stroke-linejoin="round"/>
<path id="Vector_3" d="M16.0133 14.8267V18.2" stroke="#FB5959" stroke-width="2" stroke-linecap="round" stroke-linejoin="round"/>
</g>
</g>
<g id="Group_3">
<path id="Vector_4" d="M16.6933 6.66669H15.3599C14.6266 6.66669 14.0266 6.06669 14.0266 5.33335V4.00002C14.0266 3.26669 14.6266 2.66669 15.3599 2.66669H16.6933C17.4266 2.66669 18.0266 3.26669 18.0266 4.00002V5.33335C18.0266 6.06669 17.4266 6.66669 16.6933 6.66669Z" stroke="#FB5959" stroke-width="2" stroke-linecap="round" stroke-linejoin="round"/>
<path id="Vector_5" d="M4.35994 18.8934H5.69328C6.42661 18.8934 7.02661 18.2934 7.02661 17.5601V16.2267C7.02661 15.4934 6.42661 14.8933 5.69328 14.8933H4.35994C3.62661 14.8933 3.02661 15.4934 3.02661 16.2267V17.5601C3.02661 18.2934 3.62661 18.8934 4.35994 18.8934Z" stroke="#FB5959" stroke-width="1.5" stroke-linecap="round" stroke-linejoin="round"/>
<path id="Vector_6" d="M27.6399 18.8934H26.3066C25.5733 18.8934 24.9733 18.2934 24.9733 17.5601V16.2267C24.9733 15.4934 25.5733 14.8933 26.3066 14.8933H27.6399C28.3733 14.8933 28.9733 15.4934 28.9733 16.2267V17.5601C28.9733 18.2934 28.3733 18.8934 27.6399 18.8934Z" stroke="#FB5959" stroke-width="1.5" stroke-linecap="round" stroke-linejoin="round"/>
<path id="Vector_7" d="M14.0267 4.7467C8.94667 5.3467 5 9.65335 5 14.8934" stroke="#FB5959" stroke-width="1.5" stroke-linecap="round" stroke-linejoin="round"/>
<path id="Vector_8" d="M26.9999 14.8934C26.9999 9.66668 23.0799 5.37337 18.0266 4.7467" stroke="#FB5959" stroke-width="1.5" stroke-linecap="round" stroke-linejoin="round"/>
</g>
</g>
</g>
</svg>
