<svg width="71" height="50" viewBox="0 0 71 50" fill="none" xmlns="http://www.w3.org/2000/svg">
<g id="feather:upload-cloud" clip-path="url(#clip0_19_23727)">
<g id="Group">
<path id="Vector" d="M46 33L38 25L30 33" stroke="#708DE9" stroke-width="2" stroke-linecap="round" stroke-linejoin="round"/>
<path id="Vector_2" d="M38 25V43" stroke="#708DE9" stroke-width="2" stroke-linecap="round" stroke-linejoin="round"/>
<path id="Vector_3" d="M54.7799 37.78C56.7306 36.7166 58.2716 35.0338 59.1597 32.9973C60.0477 30.9608 60.2323 28.6865 59.6843 26.5334C59.1363 24.3803 57.8869 22.4711 56.1333 21.1069C54.3796 19.7428 52.2216 19.0015 49.9999 19H47.4799C46.8745 16.6585 45.7462 14.4847 44.1798 12.642C42.6134 10.7993 40.6496 9.33573 38.4361 8.36124C36.2226 7.38676 33.817 6.92675 31.4002 7.01579C28.9833 7.10484 26.6181 7.74063 24.4823 8.87536C22.3465 10.0101 20.4957 11.6142 19.0692 13.5672C17.6426 15.5202 16.6773 17.7711 16.2459 20.1508C15.8145 22.5305 15.9281 24.9771 16.5783 27.3066C17.2286 29.636 18.3984 31.7878 19.9999 33.6" stroke="#708DE9" stroke-width="2" stroke-linecap="round" stroke-linejoin="round"/>
<path id="Vector_4" d="M46 33L38 25L30 33" stroke="#708DE9" stroke-width="2" stroke-linecap="round" stroke-linejoin="round"/>
</g>
<path id="Vector_5" d="M5.05039 28.0833C4.9615 28.0833 4.87539 28.0583 4.79206 28.0083C4.70872 27.9583 4.64484 27.8889 4.60039 27.8L3.51706 25.4833L1.18372 24.4333C1.09484 24.3889 1.02539 24.325 0.975391 24.2416C0.925391 24.1583 0.900391 24.0722 0.900391 23.9833C0.900391 23.8944 0.925391 23.8083 0.975391 23.725C1.02539 23.6416 1.09484 23.5777 1.18372 23.5333L3.51706 22.4833L4.60039 20.1833C4.64484 20.0833 4.70872 20.0083 4.79206 19.9583C4.87539 19.9083 4.9615 19.8833 5.05039 19.8833C5.13928 19.8833 5.22539 19.9083 5.30872 19.9583C5.39206 20.0083 5.45595 20.0777 5.50039 20.1666L6.60039 22.4833L8.91706 23.5333C9.01706 23.5777 9.09206 23.6416 9.14206 23.725C9.19206 23.8083 9.21706 23.8944 9.21706 23.9833C9.21706 24.0722 9.19206 24.1583 9.14206 24.2416C9.09206 24.325 9.01706 24.3889 8.91706 24.4333L6.60039 25.4833L5.50039 27.8C5.45595 27.9 5.39206 27.9722 5.30872 28.0166C5.22539 28.0611 5.13928 28.0833 5.05039 28.0833ZM5.05039 26.3L5.85039 24.7L7.48372 23.9833L5.85039 23.2666L5.05039 21.6666L4.26706 23.2666L2.61706 23.9833L4.26706 24.7L5.05039 26.3Z" fill="#708DE9"/>
<path id="Vector_6" d="M54.0504 9.0833C53.9615 9.0833 53.8754 9.0583 53.7921 9.0083C53.7087 8.9583 53.6448 8.88886 53.6004 8.79997L52.5171 6.4833L50.1837 5.4333C50.0948 5.38886 50.0254 5.32497 49.9754 5.24163C49.9254 5.1583 49.9004 5.07219 49.9004 4.9833C49.9004 4.89441 49.9254 4.8083 49.9754 4.72497C50.0254 4.64163 50.0948 4.57775 50.1837 4.5333L52.5171 3.4833L53.6004 1.1833C53.6448 1.0833 53.7087 1.0083 53.7921 0.958301C53.8754 0.908301 53.9615 0.883301 54.0504 0.883301C54.1393 0.883301 54.2254 0.908301 54.3087 0.958301C54.3921 1.0083 54.4559 1.07775 54.5004 1.16663L55.6004 3.4833L57.9171 4.5333C58.0171 4.57775 58.0921 4.64163 58.1421 4.72497C58.1921 4.8083 58.2171 4.89441 58.2171 4.9833C58.2171 5.07219 58.1921 5.1583 58.1421 5.24163C58.0921 5.32497 58.0171 5.38886 57.9171 5.4333L55.6004 6.4833L54.5004 8.79997C54.4559 8.89997 54.3921 8.97219 54.3087 9.01663C54.2254 9.06108 54.1393 9.0833 54.0504 9.0833ZM54.0504 7.29997L54.8504 5.69997L56.4837 4.9833L54.8504 4.26663L54.0504 2.66663L53.2671 4.26663L51.6171 4.9833L53.2671 5.69997L54.0504 7.29997Z" fill="#708DE9"/>
<path id="Vector_7" d="M66.0504 49.0833C65.9615 49.0833 65.8754 49.0583 65.7921 49.0083C65.7087 48.9583 65.6448 48.8889 65.6004 48.8L64.5171 46.4833L62.1837 45.4333C62.0948 45.3889 62.0254 45.325 61.9754 45.2416C61.9254 45.1583 61.9004 45.0722 61.9004 44.9833C61.9004 44.8944 61.9254 44.8083 61.9754 44.725C62.0254 44.6416 62.0948 44.5777 62.1837 44.5333L64.5171 43.4833L65.6004 41.1833C65.6448 41.0833 65.7087 41.0083 65.7921 40.9583C65.8754 40.9083 65.9615 40.8833 66.0504 40.8833C66.1393 40.8833 66.2254 40.9083 66.3087 40.9583C66.3921 41.0083 66.4559 41.0777 66.5004 41.1666L67.6004 43.4833L69.9171 44.5333C70.0171 44.5777 70.0921 44.6416 70.1421 44.725C70.1921 44.8083 70.2171 44.8944 70.2171 44.9833C70.2171 45.0722 70.1921 45.1583 70.1421 45.2416C70.0921 45.325 70.0171 45.3889 69.9171 45.4333L67.6004 46.4833L66.5004 48.8C66.4559 48.9 66.3921 48.9722 66.3087 49.0166C66.2254 49.0611 66.1393 49.0833 66.0504 49.0833ZM66.0504 47.3L66.8504 45.7L68.4837 44.9833L66.8504 44.2666L66.0504 42.6666L65.2671 44.2666L63.6171 44.9833L65.2671 45.7L66.0504 47.3Z" fill="#708DE9"/>
</g>
<defs>
<clipPath id="clip0_19_23727">
<rect width="70" height="50" fill="white" transform="translate(0.5)"/>
</clipPath>
</defs>
</svg>
