<svg width="25" height="24" viewBox="0 0 25 24" fill="none" xmlns="http://www.w3.org/2000/svg">
<path d="M13.155 20.42H6.835C3.675 20.42 2.625 18.32 2.625 16.21V7.78996C2.625 4.62996 3.675 3.57996 6.835 3.57996H13.155C16.315 3.57996 17.365 4.62996 17.365 7.78996V16.21C17.365 19.37 16.305 20.42 13.155 20.42Z" stroke="#292D32" stroke-width="1.5" stroke-linecap="round" stroke-linejoin="round"/>
<path d="M20.145 17.1L17.365 15.15V8.84001L20.145 6.89001C21.505 5.94001 22.625 6.52001 22.625 8.19001V15.81C22.625 17.48 21.505 18.06 20.145 17.1Z" stroke="#292D32" stroke-width="1.5" stroke-linecap="round" stroke-linejoin="round"/>
<path d="M12.125 11C12.9534 11 13.625 10.3284 13.625 9.5C13.625 8.67157 12.9534 8 12.125 8C11.2966 8 10.625 8.67157 10.625 9.5C10.625 10.3284 11.2966 11 12.125 11Z" stroke="#292D32" stroke-width="1.5" stroke-linecap="round" stroke-linejoin="round"/>
</svg>
