<svg width="25" height="24" viewBox="0 0 25 24" fill="none" xmlns="http://www.w3.org/2000/svg">
<path d="M12.625 15.5C14.835 15.5 16.625 13.71 16.625 11.5V6C16.625 3.79 14.835 2 12.625 2C10.415 2 8.625 3.79 8.625 6V11.5C8.625 13.71 10.415 15.5 12.625 15.5Z" stroke="#292D32" stroke-width="1.5" stroke-linecap="round" stroke-linejoin="round"/>
<path d="M4.97498 9.65002V11.35C4.97498 15.57 8.40498 19 12.625 19C16.845 19 20.275 15.57 20.275 11.35V9.65002" stroke="#292D32" stroke-width="1.5" stroke-linecap="round" stroke-linejoin="round"/>
<path d="M11.235 6.43C12.135 6.1 13.115 6.1 14.015 6.43" stroke="#292D32" stroke-width="1.5" stroke-linecap="round" stroke-linejoin="round"/>
<path d="M11.825 8.54995C12.355 8.40995 12.905 8.40995 13.435 8.54995" stroke="#292D32" stroke-width="1.5" stroke-linecap="round" stroke-linejoin="round"/>
<path d="M12.625 19V22" stroke="#292D32" stroke-width="1.5" stroke-linecap="round" stroke-linejoin="round"/>
</svg>
