<svg width="25" height="24" viewBox="0 0 25 24" fill="none" xmlns="http://www.w3.org/2000/svg">
<path d="M2.625 10V14C2.625 16 3.625 17 5.625 17H7.055C7.425 17 7.795 17.11 8.115 17.3L11.035 19.13C13.555 20.71 15.625 19.56 15.625 16.59V7.41003C15.625 4.43003 13.555 3.29003 11.035 4.87003L8.115 6.70003C7.795 6.89003 7.425 7.00003 7.055 7.00003H5.625C3.625 7.00003 2.625 8.00003 2.625 10Z" stroke="#292D32" stroke-width="1.5"/>
<path d="M18.625 8C20.405 10.37 20.405 13.63 18.625 16" stroke="#292D32" stroke-width="1.5" stroke-linecap="round" stroke-linejoin="round"/>
<path d="M20.455 5.5C23.345 9.35 23.345 14.65 20.455 18.5" stroke="#292D32" stroke-width="1.5" stroke-linecap="round" stroke-linejoin="round"/>
</svg>
